{
  "source": "C:\\Users\\Peter\\Desktop\\stuff\\MIUN\\quantitative_research\\video_compression\\videos\\BVI-HD\\CalmingWater_1920x1080_60fps.mp4",
  "output": "C:\\Users\\Peter\\Desktop\\stuff\\MIUN\\quantitative_research\\video_compression\\compressed_videos\\BVI-HD\\h264\\12\\CalmingWater_1920x1080_60fps_h264.mp4",
  "codec": "h264",
  "ok": "Input #0, mov,mp4,m4a,3gp,3g2,mj2, from 'C:\\Users\\Peter\\Desktop\\stuff\\MIUN\\quantitative_research\\video_compression\\videos\\BVI-HD\\CalmingWater_1920x1080_60fps.mp4':\n  Metadata:\n    major_brand     : isom\n    minor_version   : 512\n    compatible_brands: isomiso2avc1mp41\n    encoder         : Lavf54.28.101\n  Duration: 00:00:05.00, start: 0.000000, bitrate: 623787 kb/s\n  Stream #0:0[0x1](und): Video: h264 (High 4:4:4 Predictive) (avc1 / 0x31637661), yuv420p(progressive), 1920x1080, 623782 kb/s, 60 fps, 60 tbr, 60 tbn (default)\n    Metadata:\n      handler_name    : VideoHandler\n      vendor_id       : [0][0][0][0]\n[out#0/mp4 @ 0000023324ba9c40] Codec AVOption b:a (set bitrate (in bits/s)) has not been used for any stream. The most likely reason is either wrong type (e.g. a video option with no video streams) or that it is a private option of some decoder which was not actually used for any stream.\nStream mapping:\n  Stream #0:0 -> #0:0 (h264 (native) -> h264 (libx264))\nPress [q] to stop, [?] for help\n[libx264 @ 00000233256b0300] using cpu capabilities: MMX2 SSE2Fast SSSE3 SSE4.2 AVX FMA3 BMI2 AVX2\n[libx264 @ 00000233256b0300] profile High, level 5.0, 4:2:0, 8-bit\n[libx264 @ 00000233256b0300] 264 - core 165 r3222 b35605a - H.264/MPEG-4 AVC codec - Copyleft 2003-2025 - http://www.videolan.org/x264.html - options: cabac=1 ref=5 deblock=1:0:0 analyse=0x3:0x113 me=hex subme=8 psy=1 psy_rd=1.00:0.00 mixed_ref=1 me_range=16 chroma_me=1 trellis=2 8x8dct=1 cqm=0 deadzone=21,11 fast_pskip=1 chroma_qp_offset=-2 threads=18 lookahead_threads=3 sliced_threads=0 nr=0 decimate=1 interlaced=0 bluray_compat=0 constrained_intra=0 bframes=3 b_pyramid=2 b_adapt=1 b_bias=0 direct=3 weightb=1 open_gop=0 weightp=2 keyint=250 keyint_min=25 scenecut=40 intra_refresh=0 rc_lookahead=50 rc=cbr mbtree=1 bitrate=12000 ratetol=1.0 qcomp=0.60 qpmin=0 qpmax=69 qpstep=4 vbv_maxrate=12000 vbv_bufsize=12000 nal_hrd=none filler=0 ip_ratio=1.40 aq=1:1.00\nOutput #0, mp4, to 'C:\\Users\\Peter\\Desktop\\stuff\\MIUN\\quantitative_research\\video_compression\\compressed_videos\\BVI-HD\\h264\\12\\CalmingWater_1920x1080_60fps_h264.mp4':\n  Metadata:\n    major_brand     : isom\n    minor_version   : 512\n    compatible_brands: isomiso2avc1mp41\n    encoder         : Lavf62.3.100\n  Stream #0:0(und): Video: h264 (avc1 / 0x31637661), yuv420p(tv, progressive), 1920x1080, q=2-31, 12000 kb/s, 60 fps, 15360 tbn (default)\n    Metadata:\n      encoder         : Lavc62.11.100 libx264\n      handler_name    : VideoHandler\n      vendor_id       : [0][0][0][0]\n    Side data:\n      cpb: bitrate max/min/avg: 12000000/0/12000000 buffer size: 12000000 vbv_delay: N/A\nframe=    0 fps=0.0 q=0.0 size=       0KiB time=N/A bitrate=N/A speed=N/A elapsed=0:00:00.50    \nframe=    0 fps=0.0 q=0.0 size=       0KiB time=N/A bitrate=N/A speed=N/A elapsed=0:00:01.24    \nframe=    0 fps=0.0 q=0.0 size=       0KiB time=N/A bitrate=N/A speed=N/A elapsed=0:00:01.87    \nframe=    0 fps=0.0 q=0.0 size=       0KiB time=N/A bitrate=N/A speed=N/A elapsed=0:00:02.46    \nframe=    0 fps=0.0 q=0.0 size=       0KiB time=N/A bitrate=N/A speed=N/A elapsed=0:00:03.03    \nframe=    0 fps=0.0 q=0.0 size=       0KiB time=N/A bitrate=N/A speed=N/A elapsed=0:00:03.57    \nframe=    1 fps=0.2 q=40.0 size=       0KiB time=-00:00:00.01 bitrate=N/A speed=N/A elapsed=0:00:04.10    \nframe=   10 fps=2.1 q=42.0 size=     256KiB time=00:00:00.11 bitrate=17978.8kbits/s speed=0.025x elapsed=0:00:04.66    \nframe=   18 fps=3.4 q=42.0 size=     512KiB time=00:00:00.25 bitrate=16778.8kbits/s speed=0.0477x elapsed=0:00:05.23    \nframe=   24 fps=4.1 q=42.0 size=     768KiB time=00:00:00.35 bitrate=17976.7kbits/s speed=0.0599x elapsed=0:00:05.84    \nframe=   33 fps=5.1 q=42.0 size=    1024KiB time=00:00:00.50 bitrate=16778.0kbits/s speed=0.0772x elapsed=0:00:06.48    \nframe=   41 fps=5.8 q=42.0 size=    1024KiB time=00:00:00.63 bitrate=13245.8kbits/s speed=0.0897x elapsed=0:00:07.06    \nframe=   49 fps=6.4 q=42.0 size=    1280KiB time=00:00:00.76 bitrate=13677.6kbits/s speed= 0.1x elapsed=0:00:07.64    \nframe=   59 fps=7.2 q=42.0 size=    1536KiB time=00:00:00.93 bitrate=13482.1kbits/s speed=0.113x elapsed=0:00:08.23    \nframe=   67 fps=7.6 q=42.0 size=    1792KiB time=00:00:01.06 bitrate=13762.9kbits/s speed=0.12x elapsed=0:00:08.85    \nframe=   77 fps=8.2 q=42.0 size=    2048KiB time=00:00:01.21 bitrate=13789.8kbits/s speed=0.129x elapsed=0:00:09.44    \nframe=   85 fps=8.4 q=42.0 size=    2048KiB time=00:00:01.36 bitrate=12276.3kbits/s speed=0.135x elapsed=0:00:10.09    \nframe=   94 fps=8.8 q=42.0 size=    2304KiB time=00:00:01.51 bitrate=12444.9kbits/s speed=0.142x elapsed=0:00:10.69    \nframe=  104 fps=9.2 q=42.0 size=    2560KiB time=00:00:01.68 bitrate=12458.6kbits/s speed=0.149x elapsed=0:00:11.26    \nframe=  112 fps=9.4 q=41.0 size=    2816KiB time=00:00:01.81 bitrate=12698.6kbits/s speed=0.153x elapsed=0:00:11.88    \nframe=  120 fps=9.6 q=41.0 size=    2816KiB time=00:00:01.95 bitrate=11830.3kbits/s speed=0.156x elapsed=0:00:12.48    \nframe=  128 fps=9.8 q=41.0 size=    3072KiB time=00:00:02.06 bitrate=12177.2kbits/s speed=0.158x elapsed=0:00:13.04    \nframe=  137 fps= 10 q=41.0 size=    3328KiB time=00:00:02.23 bitrate=12207.5kbits/s speed=0.163x elapsed=0:00:13.68    \nframe=  145 fps= 10 q=41.0 size=    3584KiB time=00:00:02.36 bitrate=12405.8kbits/s speed=0.166x elapsed=0:00:14.23    \nframe=  155 fps= 10 q=40.0 size=    3584KiB time=00:00:02.53 bitrate=11589.7kbits/s speed=0.171x elapsed=0:00:14.83    \nframe=  165 fps= 11 q=40.0 size=    3840KiB time=00:00:02.70 bitrate=11651.0kbits/s speed=0.175x elapsed=0:00:15.43    \nframe=  173 fps= 11 q=40.0 size=    4096KiB time=00:00:02.83 bitrate=11842.9kbits/s speed=0.177x elapsed=0:00:16.00    \nframe=  181 fps= 11 q=40.0 size=    4352KiB time=00:00:02.96 bitrate=12017.5kbits/s speed=0.179x elapsed=0:00:16.60    \nframe=  189 fps= 11 q=39.0 size=    4352KiB time=00:00:03.10 bitrate=11500.6kbits/s speed=0.18x elapsed=0:00:17.22    \nframe=  198 fps= 11 q=39.0 size=    4608KiB time=00:00:03.25 bitrate=11615.1kbits/s speed=0.182x elapsed=0:00:17.83    \nframe=  207 fps= 11 q=39.0 size=    4864KiB time=00:00:03.41 bitrate=11662.3kbits/s speed=0.186x elapsed=0:00:18.40    \nframe=  218 fps= 11 q=39.0 size=    5120KiB time=00:00:03.58 bitrate=11705.1kbits/s speed=0.189x elapsed=0:00:18.99    \nframe=  227 fps= 12 q=39.0 size=    5120KiB time=00:00:03.73 bitrate=11234.8kbits/s speed=0.191x elapsed=0:00:19.59    \nframe=  240 fps= 12 q=39.0 size=    5376KiB time=00:00:03.93 bitrate=11196.8kbits/s speed=0.195x elapsed=0:00:20.15    \nframe=  254 fps= 12 q=37.0 size=    5888KiB time=00:00:04.20 bitrate=11484.5kbits/s speed=0.202x elapsed=0:00:20.75    \nframe=  266 fps= 12 q=35.0 size=    5888KiB time=00:00:04.40 bitrate=10962.5kbits/s speed=0.207x elapsed=0:00:21.28    \nframe=  274 fps= 13 q=34.0 size=    6144KiB time=00:00:04.53 bitrate=11102.7kbits/s speed=0.208x elapsed=0:00:21.80    \nframe=  290 fps= 13 q=-1.0 size=    6656KiB time=00:00:04.75 bitrate=11479.2kbits/s speed=0.213x elapsed=0:00:22.33    \n[mp4 @ 0000023324c37bc0] Starting second pass: moving the moov atom to the beginning of the file\n[out#0/mp4 @ 0000023324ba9c40] video:6975KiB audio:0KiB subtitle:0KiB other streams:0KiB global headers:0KiB muxing overhead: 0.037059%\nframe=  300 fps= 13 q=-1.0 Lsize=    6978KiB time=00:00:04.96 bitrate=11509.1kbits/s speed=0.22x elapsed=0:00:22.57    \n[libx264 @ 00000233256b0300] frame I:2     Avg QP:36.00  size: 62075\n[libx264 @ 00000233256b0300] frame P:252   Avg QP:41.99  size: 24033\n[libx264 @ 00000233256b0300] frame B:46    Avg QP:40.04  size: 20899\n[libx264 @ 00000233256b0300] consecutive B-frames: 79.3%  0.7%  0.0% 20.0%\n[libx264 @ 00000233256b0300] mb I  I16..4:  7.9% 86.6%  5.5%\n[libx264 @ 00000233256b0300] mb P  I16..4:  7.7% 10.0%  0.0%  P16..4: 57.7%  5.6%  2.7%  0.0%  0.0%    skip:16.2%\n[libx264 @ 00000233256b0300] mb B  I16..4:  0.8%  3.7%  0.0%  B16..8: 51.2%  8.2%  0.8%  direct: 5.1%  skip:30.3%  L0:49.4% L1:48.0% BI: 2.7%\n[libx264 @ 00000233256b0300] 8x8 transform intra:58.7% inter:96.8%\n[libx264 @ 00000233256b0300] direct mvs  spatial:87.0% temporal:13.0%\n[libx264 @ 00000233256b0300] coded y,uvDC,uvAC intra: 26.1% 52.3% 7.2% inter: 20.6% 35.9% 0.2%\n[libx264 @ 00000233256b0300] i16 v,h,dc,p: 16% 34% 10% 40%\n[libx264 @ 00000233256b0300] i8 v,h,dc,ddl,ddr,vr,hd,vl,hu:  3%  7%  8%  9% 16%  9% 22%  8% 18%\n[libx264 @ 00000233256b0300] i4 v,h,dc,ddl,ddr,vr,hd,vl,hu:  2%  4%  2% 10% 16% 11% 20% 10% 25%\n[libx264 @ 00000233256b0300] i8c dc,h,v,p: 55% 26%  9% 11%\n[libx264 @ 00000233256b0300] Weighted P-Frames: Y:3.2% UV:0.4%\n[libx264 @ 00000233256b0300] ref P L0: 59.2%  7.5% 14.6%  7.2%  6.3%  5.0%  0.2%\n[libx264 @ 00000233256b0300] ref B L0: 80.8% 11.5%  5.2%  2.5%\n[libx264 @ 00000233256b0300] ref B L1: 96.3%  3.7%\n[libx264 @ 00000233256b0300] kb/s:11426.96\n",
  "seconds": 23.074313163757324,
  "probe_out": {}
}